<svg width="30" height="30" viewBox="0 0 30 30" fill="none" xmlns="http://www.w3.org/2000/svg">
<path fill-rule="evenodd" clip-rule="evenodd" d="M15 27.5C21.9037 27.5 27.5 21.9038 27.5 15C27.5 8.09625 21.9037 2.5 15 2.5C8.09625 2.5 2.5 8.09625 2.5 15C2.5 21.9038 8.09625 27.5 15 27.5ZM15.0062 9.6975C14.7719 9.93191 14.6403 10.2498 14.6403 10.5813C14.6403 10.9127 14.7719 11.2306 15.0062 11.465L17.2912 13.75H9.69625C9.36473 13.75 9.04678 13.8817 8.81236 14.1161C8.57794 14.3505 8.44625 14.6685 8.44625 15C8.44625 15.3315 8.57794 15.6495 8.81236 15.8839C9.04678 16.1183 9.36473 16.25 9.69625 16.25H17.2912L15.0062 18.5363C14.7786 18.772 14.6526 19.0878 14.6554 19.4155C14.6583 19.7432 14.7897 20.0568 15.0215 20.2885C15.2532 20.5203 15.5668 20.6517 15.8945 20.6546C16.2222 20.6574 16.538 20.5315 16.7737 20.3038L21.1925 15.8838C21.4268 15.6493 21.5585 15.3315 21.5585 15C21.5585 14.6685 21.4268 14.3507 21.1925 14.1163L16.775 9.6975C16.5406 9.46316 16.2227 9.33152 15.8912 9.33152C15.5598 9.33152 15.2407 9.46316 15.0062 9.6975Z" fill="white"/>
</svg>
