<svg width="39" height="40" viewBox="0 0 39 40" fill="none" xmlns="http://www.w3.org/2000/svg">
<g clip-path="url(#clip0_6_129)">
<path fill-rule="evenodd" clip-rule="evenodd" d="M26.6667 5C27.1087 5 27.5326 5.17559 27.8452 5.48816C28.1577 5.80072 28.3333 6.22464 28.3333 6.66667V8.33333H31.6667C32.5507 8.33333 33.3986 8.68452 34.0237 9.30964C34.6488 9.93476 35 10.7826 35 11.6667V31.6667C35 32.5507 34.6488 33.3986 34.0237 34.0237C33.3986 34.6488 32.5507 35 31.6667 35H8.33333C7.44928 35 6.60143 34.6488 5.97631 34.0237C5.35119 33.3986 5 32.5507 5 31.6667V11.6667C5 10.7826 5.35119 9.93476 5.97631 9.30964C6.60143 8.68452 7.44928 8.33333 8.33333 8.33333H11.6667V6.66667C11.6667 6.22464 11.8423 5.80072 12.1548 5.48816C12.4674 5.17559 12.8913 5 13.3333 5C13.7754 5 14.1993 5.17559 14.5118 5.48816C14.8244 5.80072 15 6.22464 15 6.66667V8.33333H25V6.66667C25 6.22464 25.1756 5.80072 25.4882 5.48816C25.8007 5.17559 26.2246 5 26.6667 5ZM13.35 26.6667H13.3333C12.9085 26.6671 12.4999 26.8298 12.1911 27.1214C11.8822 27.413 11.6963 27.8116 11.6714 28.2357C11.6465 28.6597 11.7845 29.0773 12.0571 29.4031C12.3298 29.7288 12.7165 29.9382 13.1383 29.9883L13.35 30C13.792 30 14.216 29.8244 14.5285 29.5118C14.8411 29.1993 15.0167 28.7754 15.0167 28.3333C15.0167 27.8913 14.8411 27.4674 14.5285 27.1548C14.216 26.8423 13.792 26.6667 13.35 26.6667ZM20.0167 26.6667H20C19.5752 26.6671 19.1666 26.8298 18.8577 27.1214C18.5488 27.413 18.3629 27.8116 18.338 28.2357C18.3132 28.6597 18.4511 29.0773 18.7238 29.4031C18.9964 29.7288 19.3832 29.9382 19.805 29.9883L20.0167 30C20.4587 30 20.8826 29.8244 21.1952 29.5118C21.5077 29.1993 21.6833 28.7754 21.6833 28.3333C21.6833 27.8913 21.5077 27.4674 21.1952 27.1548C20.8826 26.8423 20.4587 26.6667 20.0167 26.6667ZM26.6833 26.6667H26.6667C26.2419 26.6671 25.8333 26.8298 25.5244 27.1214C25.2155 27.413 25.0296 27.8116 25.0047 28.2357C24.9798 28.6597 25.1178 29.0773 25.3904 29.4031C25.6631 29.7288 26.0498 29.9382 26.4717 29.9883L26.6833 30C27.1254 30 27.5493 29.8244 27.8618 29.5118C28.1744 29.1993 28.35 28.7754 28.35 28.3333C28.35 27.8913 28.1744 27.4674 27.8618 27.1548C27.5493 26.8423 27.1254 26.6667 26.6833 26.6667ZM13.35 20H13.3333C12.9085 20.0005 12.4999 20.1631 12.1911 20.4547C11.8822 20.7464 11.6963 21.1449 11.6714 21.569C11.6465 21.9931 11.7845 22.4106 12.0571 22.7364C12.3298 23.0621 12.7165 23.2715 13.1383 23.3217L13.35 23.3333C13.792 23.3333 14.216 23.1577 14.5285 22.8452C14.8411 22.5326 15.0167 22.1087 15.0167 21.6667C15.0167 21.2246 14.8411 20.8007 14.5285 20.4882C14.216 20.1756 13.792 20 13.35 20ZM20.0167 20H20C19.5752 20.0005 19.1666 20.1631 18.8577 20.4547C18.5488 20.7464 18.3629 21.1449 18.338 21.569C18.3132 21.9931 18.4511 22.4106 18.7238 22.7364C18.9964 23.0621 19.3832 23.2715 19.805 23.3217L20.0167 23.3333C20.4587 23.3333 20.8826 23.1577 21.1952 22.8452C21.5077 22.5326 21.6833 22.1087 21.6833 21.6667C21.6833 21.2246 21.5077 20.8007 21.1952 20.4882C20.8826 20.1756 20.4587 20 20.0167 20ZM26.6833 20H26.6667C26.2419 20.0005 25.8333 20.1631 25.5244 20.4547C25.2155 20.7464 25.0296 21.1449 25.0047 21.569C24.9798 21.9931 25.1178 22.4106 25.3904 22.7364C25.6631 23.0621 26.0498 23.2715 26.4717 23.3217L26.6833 23.3333C27.1254 23.3333 27.5493 23.1577 27.8618 22.8452C28.1744 22.5326 28.35 22.1087 28.35 21.6667C28.35 21.2246 28.1744 20.8007 27.8618 20.4882C27.5493 20.1756 27.1254 20 26.6833 20ZM31.6667 11.6667H8.33333V15H31.6667V11.6667Z" fill="#265073"/>
</g>
<defs>
<clipPath id="clip0_6_129">
<rect width="39" height="40" fill="white"/>
</clipPath>
</defs>
</svg>
