<svg width="20" height="20" viewBox="0 0 20 20" fill="none" xmlns="http://www.w3.org/2000/svg">
<g clip-path="url(#clip0_6_121)">
<path fill-rule="evenodd" clip-rule="evenodd" d="M10.8833 13.3833C10.649 13.6174 10.3312 13.7489 9.99999 13.7489C9.66874 13.7489 9.35104 13.6174 9.11666 13.3833L4.40166 8.66999C4.16727 8.43549 4.03564 8.11749 4.03572 7.78594C4.0358 7.4544 4.16758 7.13646 4.40208 6.90207C4.63657 6.66769 4.95457 6.53605 5.28612 6.53613C5.61767 6.53621 5.93561 6.66799 6.16999 6.90249L9.99999 10.7325L13.83 6.90249C14.0656 6.67468 14.3813 6.54853 14.7091 6.55123C15.0368 6.55392 15.3504 6.68523 15.5823 6.91688C15.8142 7.14854 15.9458 7.46199 15.9488 7.78974C15.9518 8.11748 15.8259 8.4333 15.5983 8.66916L10.8842 13.3842L10.8833 13.3833Z" fill="#09244B"/>
</g>
<defs>
<clipPath id="clip0_6_121">
<rect width="20" height="20" fill="white"/>
</clipPath>
</defs>
</svg>
