<svg width="15" height="15" viewBox="0 0 15 15" fill="none" xmlns="http://www.w3.org/2000/svg">
<path d="M12.9125 4.37496C14.6388 7.36434 13.6144 11.1875 10.625 12.9125C8.04815 14.4 4.8544 13.8443 2.91565 11.75C2.80587 11.6278 2.74856 11.4674 2.75611 11.3034C2.76367 11.1393 2.83548 10.9848 2.95603 10.8733C3.07658 10.7618 3.23617 10.7022 3.40031 10.7074C3.56444 10.7127 3.71993 10.7823 3.83315 10.9012C4.60536 11.734 5.63807 12.2791 6.76132 12.4467C7.88458 12.6144 9.03145 12.3947 10.0132 11.8237C10.9949 11.2528 11.753 10.3646 12.1628 9.30536C12.5725 8.24614 12.6094 7.079 12.2675 5.996C11.9255 4.91301 11.225 3.9787 10.2813 3.34683C9.33763 2.71497 8.20694 2.4232 7.07533 2.51954C5.94373 2.61589 4.87863 3.0946 4.05534 3.87691C3.23205 4.65922 2.69961 5.6985 2.54565 6.82371L3.34628 6.61434C4.00065 6.44371 4.48253 7.22059 4.03878 7.73121L2.63128 9.34809C2.27628 9.75559 1.59065 9.61684 1.44878 9.07059C1.10564 7.74678 1.20604 6.34697 1.73458 5.08567C2.26312 3.82438 3.19065 2.77118 4.37503 2.08746C7.3644 0.361838 11.1869 1.38559 12.9125 4.37496ZM7.50003 3.74996C7.66579 3.74996 7.82476 3.81581 7.94197 3.93302C8.05918 4.05023 8.12503 4.2092 8.12503 4.37496V7.24121L9.8169 8.93309C9.8766 8.99074 9.92421 9.05971 9.95697 9.13596C9.98972 9.21221 10.007 9.29422 10.0077 9.37721C10.0084 9.4602 9.99259 9.5425 9.96116 9.61931C9.92974 9.69612 9.88333 9.7659 9.82465 9.82458C9.76597 9.88327 9.69618 9.92968 9.61937 9.9611C9.54256 9.99253 9.46026 10.0083 9.37728 10.0076C9.29429 10.0069 9.21228 9.98966 9.13602 9.9569C9.05977 9.92415 8.99081 9.87653 8.93315 9.81684L7.05815 7.94184C6.94093 7.82465 6.87506 7.66571 6.87503 7.49996V4.37496C6.87503 4.2092 6.94088 4.05023 7.05809 3.93302C7.1753 3.81581 7.33427 3.74996 7.50003 3.74996Z" fill="#265073"/>
</svg>
