<svg width="68" height="10" viewBox="0 0 68 10" fill="none" xmlns="http://www.w3.org/2000/svg">
<path d="M5.29412 0L7.09368 3.06819L10.5882 3.81966L8.20588 6.46738L8.56606 10L5.29412 8.56819L2.02217 10L2.38235 6.46738L0 3.81966L3.49455 3.06819L5.29412 0Z" fill="#FFCB45"/>
<path d="M19.4118 0L21.2113 3.06819L24.7059 3.81966L22.3235 6.46738L22.6837 10L19.4118 8.56819L16.1398 10L16.5 6.46738L14.1176 3.81966L17.6122 3.06819L19.4118 0Z" fill="#FFCB45"/>
<path d="M33.5294 0L35.329 3.06819L38.8235 3.81966L36.4412 6.46738L36.8013 10L33.5294 8.56819L30.2575 10L30.6176 6.46738L28.2353 3.81966L31.7298 3.06819L33.5294 0Z" fill="#FFCB45"/>
<path d="M47.6471 0L49.4466 3.06819L52.9412 3.81966L50.5588 6.46738L50.919 10L47.6471 8.56819L44.3751 10L44.7353 6.46738L42.3529 3.81966L45.8475 3.06819L47.6471 0Z" fill="#FFCB45"/>
<path d="M61.7647 0L63.5643 3.06819L67.0588 3.81966L64.6765 6.46738L65.0366 10L61.7647 8.56819L58.4928 10L58.8529 6.46738L56.4706 3.81966L59.9651 3.06819L61.7647 0Z" fill="#FFCB45"/>
</svg>
