<svg width="28" height="34" viewBox="0 0 28 34" fill="none" xmlns="http://www.w3.org/2000/svg">
<path d="M5.19965 24.733C5.624 24.6092 6.08013 24.6591 6.46771 24.8717C6.85528 25.0842 7.14255 25.442 7.26632 25.8664C7.39009 26.2907 7.34021 26.7468 7.12767 27.1344C6.91513 27.522 6.55733 27.8092 6.13299 27.933C5.29965 28.1764 4.69965 28.433 4.31465 28.6664C4.71132 28.9047 5.33799 29.1714 6.20799 29.4197C8.13299 29.9697 10.888 30.333 13.9997 30.333C17.1113 30.333 19.8663 29.9697 21.7913 29.4197C22.663 29.1714 23.288 28.9047 23.6847 28.6664C23.3013 28.433 22.7013 28.1764 21.868 27.933C21.4503 27.8038 21.1001 27.5156 20.893 27.1307C20.6858 26.7457 20.6381 26.2947 20.7604 25.8749C20.8826 25.4551 21.1648 25.1002 21.5463 24.8866C21.9278 24.673 22.3779 24.6178 22.7997 24.733C23.913 25.058 24.933 25.4747 25.7163 26.0097C26.4413 26.508 27.333 27.3764 27.333 28.6664C27.333 29.9714 26.4196 30.8464 25.683 31.3447C24.8863 31.8814 23.8447 32.2997 22.7063 32.6247C20.4097 33.283 17.333 33.6664 13.9997 33.6664C10.6663 33.6664 7.58965 33.283 5.29299 32.6247C4.15465 32.2997 3.11299 31.8814 2.31632 31.3447C1.57965 30.8447 0.666321 29.9714 0.666321 28.6664C0.666321 27.3764 1.55799 26.508 2.28299 26.0097C3.06632 25.4747 4.08632 25.058 5.19965 24.733ZM13.9997 0.333008C17.3149 0.333008 20.4943 1.64997 22.8385 3.99417C25.1827 6.33838 26.4996 9.51781 26.4996 12.833C26.4996 17.113 24.1663 20.593 21.7496 23.0664C20.7246 24.113 19.6496 25.0147 18.6613 25.758C17.6713 26.5014 15.408 27.8947 15.408 27.8947C14.9787 28.1387 14.4934 28.267 13.9997 28.267C13.5059 28.267 13.0206 28.1387 12.5913 27.8947C11.4676 27.2441 10.3814 26.5308 9.33799 25.758C8.24222 24.9399 7.20984 24.0401 6.24965 23.0664C3.83299 20.593 1.49965 17.113 1.49965 12.833C1.49965 9.51781 2.81661 6.33838 5.16082 3.99417C7.50502 1.64997 10.6844 0.333008 13.9997 0.333008ZM13.9997 9.49968C13.1156 9.49968 12.2678 9.85087 11.6426 10.476C11.0175 11.1011 10.6663 11.949 10.6663 12.833C10.6663 13.7171 11.0175 14.5649 11.6426 15.19C12.2678 15.8152 13.1156 16.1663 13.9997 16.1663C14.8837 16.1663 15.7316 15.8152 16.3567 15.19C16.9818 14.5649 17.333 13.7171 17.333 12.833C17.333 11.949 16.9818 11.1011 16.3567 10.476C15.7316 9.85087 14.8837 9.49968 13.9997 9.49968Z" fill="#265073"/>
</svg>
