<svg width="34" height="28" viewBox="0 0 34 28" fill="none" xmlns="http://www.w3.org/2000/svg">
<path fill-rule="evenodd" clip-rule="evenodd" d="M18.6667 0.666687C19.0749 0.666741 19.4689 0.816614 19.774 1.08788C20.079 1.35914 20.2739 1.73293 20.3217 2.13835L20.3333 2.33335C20.3338 2.75815 20.4965 3.16674 20.7881 3.47563C21.0797 3.78453 21.4783 3.97041 21.9023 3.99531C22.3264 4.0202 22.744 3.88223 23.0697 3.60958C23.3955 3.33693 23.6048 2.95018 23.655 2.52835L23.6667 2.33335C23.6667 1.89133 23.8423 1.4674 24.1548 1.15484C24.4674 0.842282 24.8913 0.666687 25.3333 0.666687H28.6667C29.9927 0.666687 31.2645 1.19347 32.2022 2.13115C33.1399 3.06884 33.6667 4.3406 33.6667 5.66669V22.3334C33.6667 23.6594 33.1399 24.9312 32.2022 25.8689C31.2645 26.8066 29.9927 27.3334 28.6667 27.3334H25.3333C24.9251 27.3333 24.5311 27.1834 24.226 26.9122C23.921 26.6409 23.7261 26.2671 23.6783 25.8617L23.6667 25.6667C23.6662 25.2419 23.5035 24.8333 23.2119 24.5244C22.9203 24.2155 22.5217 24.0296 22.0977 24.0047C21.6736 23.9798 21.256 24.1178 20.9303 24.3905C20.6045 24.6631 20.3952 25.0499 20.345 25.4717L20.3333 25.6667C20.3333 26.1087 20.1577 26.5326 19.8452 26.8452C19.5326 27.1578 19.1087 27.3334 18.6667 27.3334H5.33333C4.00725 27.3334 2.73548 26.8066 1.7978 25.8689C0.860116 24.9312 0.333332 23.6594 0.333332 22.3334V5.66669C0.333332 4.3406 0.860116 3.06884 1.7978 2.13115C2.73548 1.19347 4.00725 0.666687 5.33333 0.666687H18.6667ZM22 15.6667C21.558 15.6667 21.134 15.8423 20.8215 16.1548C20.5089 16.4674 20.3333 16.8913 20.3333 17.3334V19C20.3333 19.442 20.5089 19.866 20.8215 20.1785C21.134 20.4911 21.558 20.6667 22 20.6667C22.442 20.6667 22.8659 20.4911 23.1785 20.1785C23.4911 19.866 23.6667 19.442 23.6667 19V17.3334C23.6667 16.8913 23.4911 16.4674 23.1785 16.1548C22.8659 15.8423 22.442 15.6667 22 15.6667ZM22 7.33335C21.5918 7.33341 21.1978 7.48328 20.8927 7.75455C20.5877 8.02581 20.3928 8.3996 20.345 8.80502L20.3333 9.00002V10.6667C20.3338 11.0915 20.4965 11.5001 20.7881 11.809C21.0797 12.1179 21.4783 12.3037 21.9023 12.3286C22.3264 12.3535 22.744 12.2156 23.0697 11.9429C23.3955 11.6703 23.6048 11.2835 23.655 10.8617L23.6667 10.6667V9.00002C23.6667 8.55799 23.4911 8.13407 23.1785 7.82151C22.8659 7.50895 22.442 7.33335 22 7.33335Z" fill="black"/>
</svg>
