<svg width="34" height="30" viewBox="0 0 34 30" fill="none" xmlns="http://www.w3.org/2000/svg">
<path fill-rule="evenodd" clip-rule="evenodd" d="M12 3.42333C11.8917 6.16 12 23.3783 12 23.3783C12.2667 23.3783 12.5333 23.4217 12.79 23.5067L22 26.5767V6.62166C21.7315 6.62159 21.4647 6.57825 21.21 6.49333L12 3.42333ZM11.21 0.173329C11.7228 0.00252638 12.2772 0.00252638 12.79 0.173329L22 3.24333L30.815 0.304996C31.1406 0.196475 31.4874 0.166878 31.8267 0.218642C32.1661 0.270407 32.4882 0.402051 32.7667 0.602731C33.0452 0.803411 33.272 1.06738 33.4285 1.3729C33.5849 1.67842 33.6666 2.01674 33.6667 2.36V24.4C33.6666 24.9248 33.5014 25.4362 33.1945 25.8619C32.8876 26.2875 32.4545 26.6058 31.9567 26.7717L22.79 29.8267C22.2767 29.9983 21.7233 29.9983 21.21 29.8267L12 26.7567L3.18499 29.695C2.85935 29.8035 2.51258 29.8331 2.17325 29.7813C1.83392 29.7296 1.51175 29.5979 1.23327 29.3973C0.954792 29.1966 0.727979 28.9326 0.571514 28.6271C0.41505 28.3216 0.333413 27.9832 0.333328 27.64V5.6C0.333377 5.07523 0.498557 4.56378 0.805466 4.13811C1.11237 3.71245 1.54545 3.39416 2.04333 3.22833L11.21 0.173329Z" fill="black"/>
</svg>
