<svg width="34" height="30" viewBox="0 0 34 30" fill="none" xmlns="http://www.w3.org/2000/svg">
<path fill-rule="evenodd" clip-rule="evenodd" d="M11.1667 -0.00012207C12.2718 -0.00012207 13.3316 0.438865 14.113 1.22027C14.8944 2.00167 15.3334 3.06148 15.3334 4.16654V6.66654H18.6667V4.16654C18.6666 3.10868 19.0688 2.09036 19.7918 1.31814C20.5148 0.545912 21.5045 0.0776073 22.5601 0.00821145L22.9317 -0.00012207C23.9808 0.000208155 25.0032 0.330488 25.8541 0.943964C26.7051 1.55744 27.3416 2.42303 27.6734 3.41821L33.0101 19.4265C33.4675 20.4466 33.6912 21.556 33.6646 22.6736C33.6381 23.7912 33.362 24.8888 32.8567 25.886C32.3513 26.8832 31.6294 27.7548 30.7438 28.437C29.8582 29.1192 28.8312 29.5949 27.7381 29.8291C26.645 30.0633 25.5133 30.0502 24.4259 29.7907C23.3385 29.5312 22.3229 29.0319 21.4533 28.3294C20.5837 27.6268 19.8822 26.7387 19.4001 25.7301C18.9179 24.7215 18.6674 23.6178 18.6667 22.4999V9.99988H15.3334V22.4999C15.3328 23.6178 15.0822 24.7215 14.6001 25.7301C14.1179 26.7387 13.4164 27.6268 12.5469 28.3294C11.6773 29.0319 10.6616 29.5312 9.57423 29.7907C8.48683 30.0502 7.35518 30.0633 6.26205 29.8291C5.16893 29.5949 4.142 29.1192 3.25638 28.437C2.37076 27.7548 1.64886 26.8832 1.14349 25.886C0.638119 24.8888 0.362064 23.7912 0.335519 22.6736C0.308975 21.556 0.532612 20.4466 0.99007 19.4265L6.32507 3.41821C6.64066 2.47228 7.23188 1.64232 8.02276 1.03498C8.81365 0.42763 9.76808 0.0706405 10.7634 0.009878L11.1667 -0.00012207ZM7.83341 18.3332C5.57507 18.3332 3.66674 20.2482 3.66674 22.4999C3.66674 23.324 3.91111 24.1295 4.36895 24.8148C4.82679 25.5 5.47753 26.034 6.23889 26.3494C7.00025 26.6647 7.83803 26.7473 8.64628 26.5865C9.45454 26.4257 10.197 26.0289 10.7797 25.4462C11.3624 24.8634 11.7592 24.121 11.92 23.3128C12.0808 22.5045 11.9983 21.6667 11.6829 20.9054C11.3675 20.144 10.8335 19.4933 10.1483 19.0354C9.46308 18.5776 8.6575 18.3332 7.83341 18.3332ZM26.1667 18.3332C25.3427 18.3332 24.5371 18.5776 23.8519 19.0354C23.1667 19.4933 22.6326 20.144 22.3172 20.9054C22.0019 21.6667 21.9194 22.5045 22.0801 23.3128C22.2409 24.121 22.6377 24.8634 23.2205 25.4462C23.8032 26.0289 24.5456 26.4257 25.3539 26.5865C26.1621 26.7473 26.9999 26.6647 27.7613 26.3494C28.5226 26.034 29.1734 25.5 29.6312 24.8148C30.089 24.1295 30.3334 23.324 30.3334 22.4999C30.3334 20.2482 28.4251 18.3332 26.1667 18.3332Z" fill="black"/>
</svg>
