<svg width="13" height="14" viewBox="0 0 13 14" fill="none" xmlns="http://www.w3.org/2000/svg">
<path d="M6.5 0.75C7.99184 0.75 9.42258 1.34263 10.4775 2.39752C11.5324 3.45242 12.125 4.88316 12.125 6.375C12.125 8.29625 11.0775 9.86875 9.97375 10.9969C9.4222 11.5543 8.82049 12.0598 8.17625 12.5069L7.91 12.6881L7.785 12.7713L7.54938 12.9213L7.33938 13.0494L7.07938 13.2006C6.90282 13.3011 6.70316 13.354 6.5 13.354C6.29684 13.354 6.09718 13.3011 5.92062 13.2006L5.66062 13.0494L5.33563 12.8494L5.21562 12.7713L4.95937 12.6006C4.26436 12.1302 3.61692 11.5931 3.02625 10.9969C1.9225 9.86813 0.875 8.29625 0.875 6.375C0.875 4.88316 1.46763 3.45242 2.52252 2.39752C3.57742 1.34263 5.00816 0.75 6.5 0.75ZM6.5 4.5C6.25377 4.5 6.00995 4.5485 5.78247 4.64273C5.55498 4.73695 5.34828 4.87507 5.17417 5.04917C5.00006 5.22328 4.86195 5.42998 4.76773 5.65747C4.6735 5.88495 4.625 6.12877 4.625 6.375C4.625 6.62123 4.6735 6.86505 4.76773 7.09253C4.86195 7.32002 5.00006 7.52672 5.17417 7.70083C5.34828 7.87494 5.55498 8.01305 5.78247 8.10728C6.00995 8.2015 6.25377 8.25 6.5 8.25C6.99728 8.25 7.47419 8.05246 7.82583 7.70083C8.17746 7.3492 8.375 6.87228 8.375 6.375C8.375 5.87772 8.17746 5.40081 7.82583 5.04917C7.47419 4.69754 6.99728 4.5 6.5 4.5Z" fill="black"/>
</svg>
